<?xml version="1.0" encoding="UTF-8" standalone="no"?>
<!-- Created with Inkscape (http://www.inkscape.org/) -->

<svg
   id="svg2"
   sodipodi:docname="ImageRadialMeter_s.svg"
   viewBox="0 0 525 370"
   version="1.1"
   inkscape:version="1.1.2 (0a00cf5339, 2022-02-04)"
   inkscape:export-filename="/home/sven/dev/c/BWidgets/examples/inc/ImageRadialMeter_s.png"
   inkscape:export-xdpi="48"
   inkscape:export-ydpi="48"
   xmlns:inkscape="http://www.inkscape.org/namespaces/inkscape"
   xmlns:sodipodi="http://sodipodi.sourceforge.net/DTD/sodipodi-0.dtd"
   xmlns="http://www.w3.org/2000/svg"
   xmlns:svg="http://www.w3.org/2000/svg"
   xmlns:rdf="http://www.w3.org/1999/02/22-rdf-syntax-ns#"
   xmlns:cc="http://creativecommons.org/ns#"
   xmlns:dc="http://purl.org/dc/elements/1.1/">
  <title
     id="title4149">VU meter. Medidor VU</title>
  <defs
     id="defs4">
    <filter
       id="filter3852"
       inkscape:collect="always"
       color-interpolation-filters="sRGB"
       x="-0.014660084"
       y="-0.072510509"
       width="1.0293202"
       height="1.145021">
      <feGaussianBlur
         id="feGaussianBlur3854"
         stdDeviation="0.80515625"
         inkscape:collect="always" />
    </filter>
    <filter
       id="filter4012"
       height="1.5024952"
       width="1.2214039"
       color-interpolation-filters="sRGB"
       y="-0.25124759"
       x="-0.11070195"
       inkscape:collect="always">
      <feGaussianBlur
         id="feGaussianBlur4014"
         stdDeviation="8.4595683"
         inkscape:collect="always" />
    </filter>
    <filter
       id="filter4210"
       height="1.3162827"
       width="1.0932213"
       color-interpolation-filters="sRGB"
       y="-0.15814135"
       x="-0.046610659"
       inkscape:collect="always">
      <feGaussianBlur
         id="feGaussianBlur4212"
         stdDeviation="8.7698437"
         inkscape:collect="always" />
    </filter>
    <filter
       id="filter3978"
       inkscape:collect="always"
       color-interpolation-filters="sRGB"
       x="-0.010152368"
       y="-0.014703491"
       width="1.0203047"
       height="1.029407">
      <feGaussianBlur
         id="feGaussianBlur3980"
         stdDeviation="2.1951853"
         inkscape:collect="always" />
    </filter>
    <linearGradient
       id="linearGradient4273"
       y2="285.63"
       gradientUnits="userSpaceOnUse"
       x2="377.8"
       gradientTransform="translate(-2.8123)"
       y1="599.81"
       x1="377.8"
       inkscape:collect="always">
      <stop
         id="stop4047"
         style="stop-color:#000000"
         offset="0" />
      <stop
         id="stop4049"
         style="stop-color:#333333"
         offset="1" />
    </linearGradient>
    <linearGradient
       id="linearGradient4275"
       y2="285.63"
       gradientUnits="userSpaceOnUse"
       x2="377.8"
       gradientTransform="translate(-1.85691,0.0892)"
       y1="599.81"
       x1="377.8"
       inkscape:collect="always">
      <stop
         id="stop2997"
         style="stop-color:#000000"
         offset="0" />
      <stop
         id="stop2999"
         style="stop-color:#666666"
         offset="1" />
    </linearGradient>
    <linearGradient
       id="linearGradient4277"
       y2="297.78"
       gradientUnits="userSpaceOnUse"
       x2="355.57"
       y1="472.53"
       x1="355.57"
       inkscape:collect="always">
      <stop
         id="stop3014"
         style="stop-color:#ffe680"
         offset="0" />
      <stop
         id="stop3016"
         style="stop-color:#f4eed7"
         offset="1" />
    </linearGradient>
    <linearGradient
       id="linearGradient4281"
       y2="620.87"
       gradientUnits="userSpaceOnUse"
       x2="376.91"
       y1="264.72"
       x1="376.91"
       inkscape:collect="always">
      <stop
         id="stop4021"
         style="stop-color:#ffffff"
         offset="0" />
      <stop
         id="stop4043"
         style="stop-color:#000000"
         offset=".55936" />
      <stop
         id="stop4023"
         style="stop-color:#ffffff"
         offset="1" />
    </linearGradient>
    <linearGradient
       id="linearGradient4283"
       y2="504.63"
       gradientUnits="userSpaceOnUse"
       x2="371.39"
       gradientTransform="matrix(1,0,0,0.29166632,0.9554,419.42048)"
       y1="592.31"
       x1="371.39"
       inkscape:collect="always">
      <stop
         id="stop4082"
         style="stop-color:#ffffff;stop-opacity:.4"
         offset="0" />
      <stop
         id="stop4084"
         style="stop-color:#ffffff;stop-opacity:0"
         offset="1" />
    </linearGradient>
  </defs>
  <sodipodi:namedview
     id="base"
     fit-margin-left="0"
     inkscape:zoom="1.435567"
     borderopacity="1.0"
     inkscape:current-layer="g4220"
     inkscape:cx="303.36445"
     inkscape:cy="228.13286"
     inkscape:window-maximized="1"
     showgrid="true"
     fit-margin-right="0"
     inkscape:guide-bbox="true"
     showguides="true"
     bordercolor="#666666"
     inkscape:window-x="0"
     inkscape:window-y="27"
     fit-margin-bottom="0"
     inkscape:window-width="1920"
     inkscape:pageopacity="0.0"
     inkscape:pageshadow="2"
     pagecolor="#ffffff"
     inkscape:document-units="px"
     inkscape:window-height="1016"
     fit-margin-top="0"
     inkscape:pagecheckerboard="0" />
  <g
     id="layer1"
     inkscape:label="Capa 1"
     inkscape:groupmode="layer"
     transform="translate(-117.03 -252.41)">
    <g
       id="g4220"
       transform="translate(4.1795 -5.5727)">
      <path
         id="path3937"
         style="fill:url(#linearGradient4273)"
         sodipodi:type="inkscape:offset"
         d="m137.59 264.09c-0.001 0-3.999 0.40605-4 0.40625s-3.8741 1.1559-3.875 1.1562c-0.00094 0.00039-3.5304 1.9057-3.5312 1.9062-0.00084 0.00056-3.1243 2.5618-3.125 2.5625-0.00072 0.00072-2.5619 3.1242-2.5625 3.125-0.00056 0.00084-1.9059 3.5303-1.9062 3.5312-0.00039 0.00094-1.156 3.874-1.1562 3.875s-0.40625 3.999-0.40625 4v317.19c0 0.001 0.40605 3.999 0.40625 4s1.1559 3.8741 1.1562 3.875c0.00039 0.00094 1.9057 3.5304 1.9062 3.5312 0.00056 0.00084 2.5618 3.1243 2.5625 3.125 0.00072 0.00072 3.1242 2.5619 3.125 2.5625 0.00084 0.00056 3.5303 1.9059 3.5312 1.9062 0.00094 0.00039 3.874 1.156 3.875 1.1562s3.999 0.40625 4 0.40625h477.81c0.001 0 3.999-0.40605 4-0.40625s3.8741-1.1559 3.875-1.1562c0.00094-0.00039 3.5304-1.9057 3.5312-1.9062 0.00084-0.00056 3.1243-2.5618 3.125-2.5625 0.00072-0.00072 2.5619-3.1242 2.5625-3.125 0.00056-0.00084 1.9059-3.5303 1.9062-3.5312 0.00039-0.00094 1.156-3.874 1.1562-3.875s0.40625-3.999 0.40625-4v-317.19c0-0.001-0.40605-3.999-0.40625-4s-1.1559-3.8741-1.1562-3.875c-0.00039-0.00094-1.9057-3.5304-1.9062-3.5312-0.00056-0.00084-2.5618-3.1243-2.5625-3.125-0.00072-0.00072-3.1242-2.5619-3.125-2.5625-0.00084-0.00056-3.5303-1.9059-3.5312-1.9062-0.00094-0.00039-3.874-1.156-3.875-1.1562s-3.999-0.40625-4-0.40625h-477.81z"
         inkscape:original="M 137.59375 274.375 A 10.28604 10.28604 0 0 0 127.3125 284.65625 L 127.3125 601.84375 A 10.28604 10.28604 0 0 0 137.59375 612.125 L 615.40625 612.125 A 10.28604 10.28604 0 0 0 625.6875 601.84375 L 625.6875 284.65625 A 10.28604 10.28604 0 0 0 615.40625 274.375 L 137.59375 274.375 z "
         inkscape:radius="10.270514" />
      <rect
         id="rect2985"
         style="fill:url(#linearGradient4275);stroke:#ffffff"
         ry="11.822"
         height="317.19"
         width="477.79999"
         y="284.73999"
         x="138.55" />
      <path
         id="path3010"
         style="fill:url(#linearGradient4277)"
         sodipodi:type="inkscape:offset"
         d="m 143.94531,297.78906 v 121.78125 c 47.90051,34.01734 131.1871,58.01563 225.77344,58.01563 94.58634,0 177.87293,-23.99829 225.77344,-58.01563 V 297.78906 Z"
         inkscape:original="M 130.8125 284.65625 L 130.8125 426.3125 C 181.38091 465.0627 269.48602 490.71875 369.71875 490.71875 C 469.95148 490.71875 558.05659 465.0627 608.625 426.3125 L 608.625 284.65625 L 130.8125 284.65625 z "
         transform="matrix(1,0,0,1.4470882,4.7812,-131.13796)"
         inkscape:radius="-13.131983" />
      <path
         id="path3858"
         style="fill:#000000;filter:url(#filter4012)"
         sodipodi:type="inkscape:offset"
         d="m 376.5,422.58008 c -18.79427,0 -36.24298,3.03391 -51.41992,8.93359 -15.17694,5.89968 -29.1692,14.24626 -37.42969,30.32031 a 25.798339,25.798339 0 0 0 19.81055,37.39649 c 22.13871,2.70893 45.25696,4.1582 69.03906,4.1582 23.7821,0 46.90035,-1.44927 69.03906,-4.1582 a 25.798339,25.798339 0 0 0 19.81055,-37.39649 c -8.26049,-16.07405 -22.25275,-24.42063 -37.42969,-30.32031 -15.17694,-5.89968 -32.62565,-8.93359 -51.41992,-8.93359 z"
         inkscape:original="M 376.5 448.375 C 344.72171 448.375 318.05219 459.11165 310.59375 473.625 C 331.68456 476.20571 353.76798 477.59375 376.5 477.59375 C 399.23202 477.59375 421.31544 476.20571 442.40625 473.625 C 434.94781 459.11165 408.27829 448.375 376.5 448.375 z "
         inkscape:radius="25.795759"
         transform="matrix(1.8042775,0,0,1.8042775,-304.73295,-273.83542)" />
      <path
         id="path3833"
         sodipodi:rx="305.5"
         sodipodi:ry="140.5"
         style="fill:none;stroke:#000000;stroke-width:3.8861;stroke-linecap:square"
         sodipodi:type="arc"
         d="M 417.73108,588.0767 A 305.5,140.5 0 0 1 161.42345,548.6432"
         sodipodi:open="true"
         transform="matrix(1,0,0,-1.6554,2.9554,1310.1)"
         sodipodi:cy="448.86218"
         sodipodi:cx="376.5"
         sodipodi:end="2.3518314"
         sodipodi:start="1.4354206"
         sodipodi:arc-type="arc" />
      <g
         id="text4214"
         style="fill:#000000"
         transform="translate(-49.4,223.09)">
        <path
           id="path4219"
           d="m 426.7,184.11 -11.113,30.254 h -4.3359 l -10.898,-30.254 h 4.3359 l 8.1445,23.652 c 0.27343,0.78126 0.47525,1.6862 0.60547,2.7148 h 0.0977 c 0.10415,-0.89843 0.33201,-1.8164 0.68359,-2.7539 l 8.3008,-23.613 z"
           inkscape:connector-curvature="0" />
        <path
           id="path4221"
           d="m 453.36,202.04 c -2e-5,8.5547 -3.8802,12.832 -11.641,12.832 -7.4349,-1e-5 -11.152,-4.1276 -11.152,-12.383 V 184.11 h 3.9062 v 18.203 c -1e-5,6.0547 2.539,9.082 7.6172,9.082 4.9088,1e-5 7.3633,-2.9297 7.3633,-8.7891 v -18.496 h 3.9062 z"
           inkscape:connector-curvature="0" />
      </g>
      <path
         id="path3078"
         style="fill:none;stroke:#000000;stroke-width:6.7171"
         d="m 377.55,360.84 -0.18812,-38.289"
         inkscape:transform-center-x="3.4526339"
         inkscape:transform-center-y="-395"
         inkscape:connector-curvature="0" />
      <path
         id="path3080"
         style="fill:none;stroke:#000000;stroke-width:6.7171"
         d="M 190.07,412.88 170.76,379.81"
         inkscape:transform-center-x="200.49007"
         inkscape:transform-center-y="-340.35371"
         inkscape:connector-curvature="0" />
      <path
         id="path3082"
         style="fill:none;stroke:#000000;stroke-width:6.7171"
         d="m 293.27,371.19 -8.78,-37.27"
         inkscape:transform-center-x="92.026775"
         inkscape:transform-center-y="-384.14579"
         inkscape:connector-curvature="0" />
      <path
         id="path3084"
         style="fill:none;stroke:#ff0000;stroke-width:6.7171"
         d="m 474.94,372.78 9.73,-37.03"
         inkscape:transform-center-x="-98.898531"
         inkscape:transform-center-y="-382.4343"
         inkscape:connector-curvature="0" />
      <path
         id="path3086"
         style="fill:none;stroke:#ff0000;stroke-width:6.7171"
         d="m 565.93,409.52 18.982,-33.253"
         inkscape:transform-center-x="-194.50993"
         inkscape:transform-center-y="-343.80634"
         inkscape:connector-curvature="0" />
      <path
         id="path3088"
         style="fill:none;stroke:#ff0000;stroke-width:6.7171"
         d="m 411.15,362.05 3.2344,-38.152"
         inkscape:transform-center-x="-31.861381"
         inkscape:transform-center-y="-393.72803"
         inkscape:connector-curvature="0" />
      <path
         id="path3835"
         sodipodi:rx="305.5"
         sodipodi:ry="140.5"
         style="stroke:#ff0000;stroke-linecap:square;stroke-width:11.658;fill:none"
         sodipodi:type="arc"
         d="m590.8 549c-45.811 20.736-104.68 34.299-168.22 38.757"
         sodipodi:open="true"
         transform="matrix(1 0 0 -1.6554 2.9554 1308.1)"
         sodipodi:cy="448.86218"
         sodipodi:cx="376.5"
         sodipodi:end="1.4193938"
         sodipodi:start="0.79335279" />
      <path
         id="path3859"
         style="fill:none;stroke:#000000;stroke-width:6.7171"
         d="m 340.05,363.06 -4.0089,-38.079"
         inkscape:transform-center-x="42.861184"
         inkscape:transform-center-y="-392.68287"
         inkscape:connector-curvature="0" />
      <path
         id="path3861"
         style="fill:none;stroke:#000000;stroke-width:6.7171"
         d="M 246.1,385.83 232.51,350.04"
         inkscape:transform-center-x="141.6022"
         inkscape:transform-center-y="-368.76244"
         inkscape:connector-curvature="0" />
      <path
         id="path3842"
         style="fill:#917c6f;filter:url(#filter3852)"
         inkscape:connector-curvature="0"
         d="m 376.78829,523.21666 c -18.83677,0.32781 -52.92988,3.31916 -66.36553,15.38404 12.80458,7.50671 43.77493,11.24786 66.50693,11.24786 22.732,0 50.76717,-3.13109 65.30507,-11.24786 -11.98405,-12.07839 -47.85132,-15.69024 -65.44647,-15.38404 z"
         transform="matrix(1.8042775,0,0,1.8042775,-304.42398,-432.35719)"
         sodipodi:nodetypes="scscs" />
      <g
         id="text3869"
         style="fill:#ff0000"
         transform="matrix(0.55108,0,0,0.54366,23.779,119.61)">
        <path
           id="path3874"
           d="m 698.26,357.11 c 0,-5.3385 0.88541,-9.3782 2.6562,-12.119 1.77079,-2.7408 4.3359,-4.1113 7.6953,-4.1113 6.4062,3e-5 9.6094,5.1693 9.6094,15.508 -2e-5,5.1042 -0.90171,9.0072 -2.7051,11.709 -1.80339,2.7018 -4.3327,4.0527 -7.5879,4.0527 -3.0729,-1e-5 -5.4525,-1.2826 -7.1387,-3.8477 -1.6862,-2.5651 -2.5293,-6.2956 -2.5293,-11.191 z m 3.9062,-0.17578 c -10e-6,8.0339 2.0378,12.051 6.1133,12.051 4.0104,10e-6 6.0156,-4.082 6.0156,-12.246 -1e-5,-8.4505 -1.9662,-12.676 -5.8984,-12.676 -4.1537,3e-5 -6.2305,4.2904 -6.2305,12.871 z"
           inkscape:connector-curvature="0" />
      </g>
      <g
         id="text3876"
         style="fill:#ff0000"
         transform="matrix(0.62163,0,0,0.54366,66.004,48.626)">
        <path
           id="path3881"
           d="m 666.77,520.26 c 2.0703,1.6016 4.4075,2.4024 7.0117,2.4024 2.0833,0 3.7337,-0.51107 4.9512,-1.5332 1.2174,-1.0221 1.8262,-2.3926 1.8262,-4.1113 -2e-5,-3.8281 -2.7409,-5.7422 -8.2227,-5.7422 h -2.5195 v -3.1641 h 2.4024 c 4.8568,10e-6 7.2851,-1.7969 7.2852,-5.3906 -10e-6,-3.3203 -1.8555,-4.9804 -5.5664,-4.9805 -2.1224,3e-5 -4.1211,0.71618 -5.9961,2.1484 v -3.6133 c 1.9792,-1.1458 4.2904,-1.7187 6.9336,-1.7188 2.5781,3e-5 4.6484,0.67386 6.2109,2.0215 1.5625,1.3477 2.3437,3.0957 2.3438,5.2441 -2e-5,3.9584 -2.0182,6.5039 -6.0547,7.6367 v 0.0781 c 2.1875,0.23439 3.916,1.0059 5.1855,2.3144 1.2695,1.3086 1.9043,2.9395 1.9043,4.8926 -2e-5,2.7214 -0.97984,4.9154 -2.9394,6.582 -1.9596,1.6667 -4.5671,2.5 -7.8223,2.5 -2.8646,0 -5.1758,-0.53385 -6.9336,-1.6016 z"
           inkscape:connector-curvature="0" />
      </g>
      <g
         id="text3883"
         style="fill:#ff0000"
         transform="matrix(0.64,0,0,0.55264,267.13,-19.505)">
        <path
           id="path3888"
           d="m 494.05,707.85 c 2.0312,1.3281 4.1471,1.9922 6.3477,1.9922 2.0833,0 3.763,-0.58268 5.0391,-1.748 1.276,-1.1654 1.914,-2.7116 1.9141,-4.6387 -2e-5,-1.9401 -0.6478,-3.444 -1.9434,-4.5117 -1.2956,-1.0677 -3.1738,-1.6016 -5.6348,-1.6016 -1.1849,10e-6 -2.78,0.0912 -4.7852,0.27343 v -15.371 h 14.883 v 3.3789 h -11.328 v 8.5547 c 1.1328,-0.0651 1.9857,-0.0976 2.5586,-0.0977 3.1901,2e-5 5.6771,0.80731 7.4609,2.4219 1.7838,1.61459 2.6758,3.8412 2.6758,6.6797 -2e-5,2.9297 -0.95705,5.2995 -2.8711,7.1094 -1.9141,1.8099 -4.5573,2.7148 -7.9297,2.7148 -2.8255,0 -4.9544,-0.41667 -6.3867,-1.25 z"
           inkscape:connector-curvature="0" />
      </g>
      <g
         id="g3890"
         style="fill:#000000"
         transform="matrix(0.62163,0,0,0.54366,-42.3,34.775)">
        <path
           id="path3892"
           style="fill:#000000"
           inkscape:connector-curvature="0"
           d="m 666.77,520.26 c 2.0703,1.6016 4.4075,2.4024 7.0117,2.4024 2.0833,0 3.7337,-0.51107 4.9512,-1.5332 1.2174,-1.0221 1.8262,-2.3926 1.8262,-4.1113 -2e-5,-3.8281 -2.7409,-5.7422 -8.2227,-5.7422 h -2.5195 v -3.1641 h 2.4024 c 4.8568,10e-6 7.2851,-1.7969 7.2852,-5.3906 -10e-6,-3.3203 -1.8555,-4.9804 -5.5664,-4.9805 -2.1224,3e-5 -4.1211,0.71618 -5.9961,2.1484 v -3.6133 c 1.9792,-1.1458 4.2904,-1.7187 6.9336,-1.7188 2.5781,3e-5 4.6484,0.67386 6.2109,2.0215 1.5625,1.3477 2.3437,3.0957 2.3438,5.2441 -2e-5,3.9584 -2.0182,6.5039 -6.0547,7.6367 v 0.0781 c 2.1875,0.23439 3.916,1.0059 5.1855,2.3144 1.2695,1.3086 1.9043,2.9395 1.9043,4.8926 -2e-5,2.7214 -0.97984,4.9154 -2.9394,6.582 -1.9596,1.6667 -4.5671,2.5 -7.8223,2.5 -2.8646,0 -5.1758,-0.53385 -6.9336,-1.6016 z" />
      </g>
      <g
         id="g3894"
         style="fill:#000000"
         transform="matrix(0.64,0,0,0.55264,14.297,-70.792)">
        <path
           id="path3896"
           style="fill:#000000"
           inkscape:connector-curvature="0"
           d="m 494.05,707.85 c 2.0312,1.3281 4.1471,1.9922 6.3477,1.9922 2.0833,0 3.763,-0.58268 5.0391,-1.748 1.276,-1.1654 1.914,-2.7116 1.9141,-4.6387 -2e-5,-1.9401 -0.6478,-3.444 -1.9434,-4.5117 -1.2956,-1.0677 -3.1738,-1.6016 -5.6348,-1.6016 -1.1849,10e-6 -2.78,0.0912 -4.7852,0.27343 v -15.371 h 14.883 v 3.3789 h -11.328 v 8.5547 c 1.1328,-0.0651 1.9857,-0.0976 2.5586,-0.0977 3.1901,2e-5 5.6771,0.80731 7.4609,2.4219 1.7838,1.61459 2.6758,3.8412 2.6758,6.6797 -2e-5,2.9297 -0.95705,5.2995 -2.8711,7.1094 -1.9141,1.8099 -4.5573,2.7148 -7.9297,2.7148 -2.8255,0 -4.9544,-0.41667 -6.3867,-1.25 z" />
      </g>
      <g
         id="text3898"
         style="fill:#000000"
         transform="matrix(0.55928,0,0,0.56191,140.96,-77.997)">
        <path
           id="path3903"
           d="m 265.82,701.3 -11.836,28.926 h -3.9648 l 11.25,-26.875 h -15.117 v -3.3789 h 19.668 z"
           inkscape:connector-curvature="0" />
      </g>
      <g
         id="text3905"
         style="fill:#000000"
         transform="matrix(0.55209,0,0,0.54129,33.899,-49.545)">
        <path
           id="path3910"
           d="m 354.99,732.2 h -17.344 v -3.3008 h 6.7773 v -22.969 l -6.9531,2.0117 v -3.5156 l 10.762,-3.125 v 27.598 h 6.7578 z"
           inkscape:connector-curvature="0" />
        <path
           id="path3912"
           d="m 359.17,717.67 c 0,-5.3385 0.88542,-9.3782 2.6562,-12.119 1.7708,-2.7409 4.3359,-4.1113 7.6953,-4.1113 6.4062,3e-5 9.6094,5.1693 9.6094,15.508 -2e-5,5.1042 -0.90171,9.0072 -2.7051,11.709 -1.80339,2.7018 -4.3327,4.0527 -7.5879,4.0527 -3.0729,0 -5.4525,-1.2826 -7.1387,-3.8476 -1.6862,-2.5651 -2.5293,-6.2956 -2.5293,-11.191 z m 3.9062,-0.17578 c 0,8.0339 2.0378,12.051 6.1133,12.051 4.0104,0 6.0156,-4.082 6.0156,-12.246 -2e-5,-8.4505 -1.9662,-12.676 -5.8984,-12.676 -4.1536,2e-5 -6.2305,4.2904 -6.2305,12.871 z"
           inkscape:connector-curvature="0" />
      </g>
      <g
         id="text3914"
         style="fill:#000000"
         transform="matrix(0.53358,0,0,0.54366,-24.3,-15.615)">
        <path
           id="path3923"
           d="m 361.32,721.36 h -18.398 v -3.3203 l 8.7891,-8.7695 c 2.4219,-2.4219 4.043,-4.3392 4.8633,-5.752 0.8203,-1.4127 1.2304,-2.8743 1.2305,-4.3848 -2e-5,-1.7187 -0.48179,-3.0371 -1.4453,-3.9551 -0.96356,-0.91795 -2.3568,-1.3769 -4.1797,-1.377 -2.6953,3e-5 -5.2669,1.1459 -7.7148,3.4375 v -3.8867 c 2.3828,-1.8359 5.1562,-2.7539 8.3203,-2.7539 2.7213,3e-5 4.8698,0.7357 6.4453,2.207 1.5755,1.4714 2.3633,3.4505 2.3633,5.9375 -2e-5,1.875 -0.50458,3.7142 -1.5137,5.5176 -1.00912,1.8034 -2.9199,4.0983 -5.7324,6.8848 l -6.8945,6.7383 v 0.0781 h 13.867 z"
           inkscape:connector-curvature="0" />
        <path
           id="path3925"
           d="m 366.07,706.83 c 0,-5.3385 0.88541,-9.3782 2.6562,-12.119 1.7708,-2.7409 4.3359,-4.1113 7.6953,-4.1113 6.4062,3e-5 9.6094,5.1693 9.6094,15.508 -2e-5,5.1042 -0.90171,9.0072 -2.7051,11.709 -1.80339,2.7018 -4.3327,4.0527 -7.5879,4.0527 -3.0729,0 -5.4525,-1.2826 -7.1387,-3.8477 -1.6862,-2.5651 -2.5293,-6.2956 -2.5293,-11.191 z m 3.9062,-0.17578 c -1e-5,8.0339 2.0378,12.051 6.1133,12.051 4.0104,0 6.0156,-4.082 6.0156,-12.246 -10e-6,-8.4505 -1.9662,-12.676 -5.8984,-12.676 -4.1537,3e-5 -6.2305,4.2904 -6.2305,12.871 z"
           inkscape:connector-curvature="0" />
      </g>
      <path
         id="path3960"
         style="opacity:.73061;filter:url(#filter3978);fill:url(#linearGradient4281)"
         sodipodi:type="inkscape:offset"
         d="m137.59 264.09c-0.001 0-3.999 0.40605-4 0.40625s-3.8741 1.1559-3.875 1.1562c-0.00094 0.00039-3.5304 1.9057-3.5312 1.9062-0.00084 0.00056-3.1243 2.5618-3.125 2.5625-0.00072 0.00072-2.5619 3.1242-2.5625 3.125-0.00056 0.00084-1.9059 3.5303-1.9062 3.5312-0.00039 0.00094-1.156 3.874-1.1562 3.875s-0.40625 3.999-0.40625 4v317.19c0 0.001 0.40605 3.999 0.40625 4s1.1559 3.8741 1.1562 3.875c0.00039 0.00094 1.9057 3.5304 1.9062 3.5312 0.00056 0.00084 2.5618 3.1243 2.5625 3.125 0.00072 0.00072 3.1242 2.5619 3.125 2.5625 0.00084 0.00056 3.5303 1.9059 3.5312 1.9062 0.00094 0.00039 3.874 1.156 3.875 1.1562s3.999 0.40625 4 0.40625h477.81c0.001 0 3.999-0.40605 4-0.40625s3.8741-1.1559 3.875-1.1562c0.00094-0.00039 3.5304-1.9057 3.5312-1.9062 0.00084-0.00056 3.1243-2.5618 3.125-2.5625 0.00072-0.00072 2.5619-3.1242 2.5625-3.125 0.00056-0.00084 1.9059-3.5303 1.9062-3.5312 0.00039-0.00094 1.156-3.874 1.1562-3.875s0.40625-3.999 0.40625-4v-317.19c0-0.001-0.40605-3.999-0.40625-4s-1.1559-3.8741-1.1562-3.875c-0.00039-0.00094-1.9057-3.5304-1.9062-3.5312-0.00056-0.00084-2.5618-3.1243-2.5625-3.125-0.00072-0.00072-3.1242-2.5619-3.125-2.5625-0.00084-0.00056-3.5303-1.9059-3.5312-1.9062-0.00094-0.00039-3.874-1.156-3.875-1.1562s-3.999-0.40625-4-0.40625h-477.81zm0 4.8125h477.81c0.001 0 3.0615 0.3123 3.0625 0.3125s2.9678 0.87461 2.9688 0.875c0.00094 0.00039 2.7179 1.4682 2.7188 1.4688 0.00084 0.00056 2.3743 1.968 2.375 1.9688 0.00072 0.00072 1.9682 2.3742 1.9688 2.375 0.00056 0.00084 1.4684 2.7178 1.4688 2.7188 0.00039 0.00094 0.8748 2.9678 0.875 2.9688s0.3125 3.0615 0.3125 3.0625v317.19c0 0.001-0.3123 3.0615-0.3125 3.0625s-0.87461 2.9678-0.875 2.9688c-0.00039 0.00094-1.4682 2.7179-1.4688 2.7188-0.00056 0.00084-1.968 2.3743-1.9688 2.375-0.00072 0.00072-2.3742 1.9682-2.375 1.9688-0.00084 0.00056-2.7178 1.4684-2.7188 1.4688-0.00094 0.00039-2.9678 0.8748-2.9688 0.875s-3.0615 0.3125-3.0625 0.3125h-477.81c-0.001 0-3.0615-0.3123-3.0625-0.3125s-2.9678-0.87461-2.9688-0.875c-0.00094-0.00039-2.7179-1.4682-2.7188-1.4688-0.00084-0.00056-2.3743-1.968-2.375-1.9688-0.00072-0.00072-1.9682-2.3742-1.9688-2.375-0.00056-0.00084-1.4684-2.7178-1.4688-2.7188-0.00039-0.00094-0.8748-2.9678-0.875-2.9688s-0.3125-3.0615-0.3125-3.0625v-317.19c0-0.001 0.3123-3.0615 0.3125-3.0625s0.87461-2.9678 0.875-2.9688c0.00039-0.00094 1.4682-2.7179 1.4688-2.7188 0.00056-0.00084 1.968-2.3743 1.9688-2.375 0.00072-0.00072 2.3742-1.9682 2.375-1.9688 0.00084-0.00056 2.7178-1.4684 2.7188-1.4688 0.00094-0.00039 2.9678-0.8748 2.9688-0.875s3.0615-0.3125 3.0625-0.3125z"
         inkscape:original="M 137.59375 264.09375 C 137.59275 264.09375 133.59475 264.4998 133.59375 264.5 C 133.59275 264.5002 129.71969 265.65586 129.71875 265.65625 C 129.71781 265.65664 126.18834 267.56194 126.1875 267.5625 C 126.18666 267.56306 123.06322 270.12428 123.0625 270.125 C 123.06178 270.12572 120.50056 273.24916 120.5 273.25 C 120.49944 273.25084 118.59414 276.78031 118.59375 276.78125 C 118.59336 276.78219 117.4377 280.65525 117.4375 280.65625 C 117.4373 280.65725 117.03125 284.65523 117.03125 284.65625 L 117.03125 601.84375 C 117.03125 601.84475 117.4373 605.84275 117.4375 605.84375 C 117.4377 605.84475 118.59336 609.71781 118.59375 609.71875 C 118.59414 609.71969 120.49944 613.24916 120.5 613.25 C 120.50056 613.25084 123.06178 616.37428 123.0625 616.375 C 123.06322 616.37572 126.18666 618.93694 126.1875 618.9375 C 126.18834 618.93806 129.71781 620.84336 129.71875 620.84375 C 129.71969 620.84414 133.59275 621.9998 133.59375 622 C 133.59475 622.0002 137.59273 622.40625 137.59375 622.40625 L 615.40625 622.40625 C 615.40725 622.40625 619.40525 622.0002 619.40625 622 C 619.40725 621.9998 623.28031 620.84414 623.28125 620.84375 C 623.28219 620.84336 626.81166 618.93806 626.8125 618.9375 C 626.81334 618.93694 629.93678 616.37572 629.9375 616.375 C 629.93822 616.37428 632.49944 613.25084 632.5 613.25 C 632.50056 613.24916 634.40586 609.71969 634.40625 609.71875 C 634.40664 609.71781 635.5623 605.84475 635.5625 605.84375 C 635.5627 605.84275 635.96875 601.84477 635.96875 601.84375 L 635.96875 284.65625 C 635.96875 284.65525 635.5627 280.65725 635.5625 280.65625 C 635.5623 280.65525 634.40664 276.78219 634.40625 276.78125 C 634.40586 276.78031 632.50056 273.25084 632.5 273.25 C 632.49944 273.24916 629.93822 270.12572 629.9375 270.125 C 629.93678 270.12428 626.81334 267.56306 626.8125 267.5625 C 626.81166 267.56194 623.28219 265.65664 623.28125 265.65625 C 623.28031 265.65586 619.40725 264.5002 619.40625 264.5 C 619.40525 264.4998 615.40727 264.09375 615.40625 264.09375 L 137.59375 264.09375 z M 137.59375 268.90625 L 615.40625 268.90625 C 615.40725 268.90625 618.46775 269.21855 618.46875 269.21875 C 618.46975 269.21895 621.43656 270.09336 621.4375 270.09375 C 621.43844 270.09414 624.15541 271.56194 624.15625 271.5625 C 624.15709 271.56306 626.53053 273.53053 626.53125 273.53125 C 626.53197 273.53197 628.49944 275.90541 628.5 275.90625 C 628.50056 275.90709 629.96836 278.62406 629.96875 278.625 C 629.96914 278.62594 630.84355 281.59275 630.84375 281.59375 C 630.84395 281.59475 631.15625 284.65523 631.15625 284.65625 L 631.15625 601.84375 C 631.15625 601.84475 630.84395 604.90525 630.84375 604.90625 C 630.84355 604.90725 629.96914 607.87406 629.96875 607.875 C 629.96836 607.87594 628.50056 610.59291 628.5 610.59375 C 628.49944 610.59459 626.53197 612.96803 626.53125 612.96875 C 626.53053 612.96947 624.15709 614.93694 624.15625 614.9375 C 624.15541 614.93806 621.43844 616.40586 621.4375 616.40625 C 621.43656 616.40664 618.46975 617.28105 618.46875 617.28125 C 618.46775 617.28145 615.40727 617.59375 615.40625 617.59375 L 137.59375 617.59375 C 137.59275 617.59375 134.53225 617.28145 134.53125 617.28125 C 134.53025 617.28105 131.56344 616.40664 131.5625 616.40625 C 131.56156 616.40586 128.84459 614.93806 128.84375 614.9375 C 128.84291 614.93694 126.46947 612.96947 126.46875 612.96875 C 126.46803 612.96803 124.50056 610.59459 124.5 610.59375 C 124.49944 610.59291 123.03164 607.87594 123.03125 607.875 C 123.03086 607.87406 122.15645 604.90725 122.15625 604.90625 C 122.15605 604.90525 121.84375 601.84477 121.84375 601.84375 L 121.84375 284.65625 C 121.84375 284.65525 122.15605 281.59475 122.15625 281.59375 C 122.15645 281.59275 123.03086 278.62594 123.03125 278.625 C 123.03164 278.62406 124.49944 275.90709 124.5 275.90625 C 124.50056 275.90541 126.46803 273.53197 126.46875 273.53125 C 126.46947 273.53053 128.84291 271.56306 128.84375 271.5625 C 128.84459 271.56194 131.56156 270.09414 131.5625 270.09375 C 131.56344 270.09336 134.53025 269.21895 134.53125 269.21875 C 134.53225 269.21855 137.59273 268.90625 137.59375 268.90625 z "
         transform="matrix(.96408 0 0 .95437 12.941 19.502)"
         inkscape:radius="0" />
      <path
         id="path4055"
         style="fill:url(#linearGradient4283);stroke-width:0.540061"
         inkscape:connector-curvature="0"
         d="m 374.39,567.17595 c -86.978,0 -166.3,4.45374 -226.19,11.77602 v 12.5507 c 0,0.37068 0.72915,0.58333 1.9688,0.58333 h 454.19 c 1.2396,0 1.9688,-0.21264 1.9688,-0.58333 v -11.82153 c -60.52,-7.75249 -142.13,-12.50665 -231.94,-12.50665 z" />
      <g
         id="text4151"
         style="fill:#ff0000"
         transform="translate(359.34,-72.596)">
        <path
           id="path4156"
           d="m 218.48,430.67 h -8.4961 v 8.457 h -2.9492 v -8.457 h -8.457 v -2.9883 h 8.457 v -8.457 h 2.9492 v 8.457 h 8.4961 z"
           inkscape:connector-curvature="0" />
      </g>
      <g
         id="text4158"
         style="fill:#000000"
         transform="translate(-92.83,-72.596)">
        <path
           id="path4163"
           d="m 268.71,421.56 h -11.504 v -2.9492 h 11.504 z"
           style="fill:#000000"
           inkscape:connector-curvature="0" />
      </g>
      <path
         id="path4188"
         style="opacity:0.5;fill:#cccccc;filter:url(#filter4210)"
         sodipodi:type="inkscape:offset"
         d="m 150.71875,297.78125 v 121.75 c 5.53472,3.93201 11.55739,7.70024 18,11.34375 V 324.78125 h 433.5625 v -27 z"
         inkscape:original="M 150.71875 297.78125 L 150.71875 419.53125 C 156.25347 423.46326 162.27614 427.23149 168.71875 430.875 L 168.71875 324.78125 L 602.28125 324.78125 L 602.28125 297.78125 L 150.71875 297.78125 z "
         transform="matrix(0.921,0,0,0.921,15.292,40.91)"
         inkscape:radius="0" />
    </g>
  </g>
  <metadata
     id="metadata87">
    <rdf:RDF>
      <cc:Work>
        <dc:format>image/svg+xml</dc:format>
        <dc:type
           rdf:resource="http://purl.org/dc/dcmitype/StillImage" />
        <cc:license
           rdf:resource="http://creativecommons.org/publicdomain/zero/1.0/" />
        <dc:publisher>
          <cc:Agent
             rdf:about="http://openclipart.org/">
            <dc:title>Openclipart</dc:title>
          </cc:Agent>
        </dc:publisher>
        <dc:title>VU meter. Medidor VU</dc:title>
        <dc:date>2011-09-22T19:46:56</dc:date>
        <dc:description>An VU meter for general purpose. Un medidor VU de uso general.</dc:description>
        <dc:source>https://openclipart.org/detail/161731/vu-meter.-medidor-vu-by-ehecatl1138</dc:source>
        <dc:creator>
          <cc:Agent>
            <dc:title>Ehecatl1138</dc:title>
          </cc:Agent>
        </dc:creator>
        <dc:subject>
          <rdf:Bag>
            <rdf:li>electronic</rdf:li>
            <rdf:li>electronica</rdf:li>
            <rdf:li>measure</rdf:li>
            <rdf:li>medicion</rdf:li>
            <rdf:li>medida</rdf:li>
            <rdf:li>medir</rdf:li>
            <rdf:li>meter</rdf:li>
            <rdf:li>metering</rdf:li>
            <rdf:li>vu</rdf:li>
          </rdf:Bag>
        </dc:subject>
      </cc:Work>
      <cc:License
         rdf:about="http://creativecommons.org/licenses/publicdomain/">
        <cc:permits
           rdf:resource="http://creativecommons.org/ns#Reproduction" />
        <cc:permits
           rdf:resource="http://creativecommons.org/ns#Distribution" />
        <cc:permits
           rdf:resource="http://creativecommons.org/ns#DerivativeWorks" />
      </cc:License>
    </rdf:RDF>
  </metadata>
</svg>
