<?xml version="1.0" encoding="UTF-8" standalone="no"?>
<!-- Created with Inkscape (http://www.inkscape.org/) -->

<svg
   width="600"
   height="600"
   viewBox="0 0 600.000004651123 600.0000125904253"
   id="svg6085"
   version="1.1"
   inkscape:version="1.1.2 (0a00cf5339, 2022-02-04)"
   sodipodi:docname="ImageDial_d.svg"
   inkscape:export-filename="/home/sven/dev/c/BWidgets/examples/inc/ImageDial_d.png"
   inkscape:export-xdpi="48"
   inkscape:export-ydpi="48"
   xmlns:inkscape="http://www.inkscape.org/namespaces/inkscape"
   xmlns:sodipodi="http://sodipodi.sourceforge.net/DTD/sodipodi-0.dtd"
   xmlns:xlink="http://www.w3.org/1999/xlink"
   xmlns="http://www.w3.org/2000/svg"
   xmlns:svg="http://www.w3.org/2000/svg"
   xmlns:rdf="http://www.w3.org/1999/02/22-rdf-syntax-ns#"
   xmlns:cc="http://creativecommons.org/ns#"
   xmlns:dc="http://purl.org/dc/elements/1.1/">
  <sodipodi:namedview
     id="base"
     pagecolor="#003af6"
     bordercolor="#ffffff"
     borderopacity="1"
     inkscape:pageopacity="0"
     inkscape:pageshadow="2"
     inkscape:zoom="7.0666666"
     inkscape:cx="172.00472"
     inkscape:cy="408.18397"
     inkscape:document-units="px"
     inkscape:current-layer="layer1"
     showgrid="false"
     borderlayer="true"
     inkscape:showpageshadow="false"
     units="px"
     inkscape:object-nodes="true"
     inkscape:snap-smooth-nodes="true"
     showguides="true"
     inkscape:guide-bbox="true"
     inkscape:snap-center="true"
     inkscape:snap-others="false"
     showborder="true"
     inkscape:snap-object-midpoints="true"
     inkscape:snap-global="false"
     inkscape:window-width="1920"
     inkscape:window-height="1016"
     inkscape:window-x="0"
     inkscape:window-y="27"
     inkscape:window-maximized="1"
     inkscape:snap-nodes="true"
     inkscape:snap-bbox="false"
     inkscape:bbox-nodes="true"
     guidecolor="#01ffe4"
     guideopacity="1"
     guidehicolor="#f001ff"
     guidehiopacity="1"
     inkscape:pagecheckerboard="true" />
  <defs
     id="defs6087">
    <linearGradient
       inkscape:collect="always"
       id="linearGradient1682">
      <stop
         style="stop-color:#00ff00;stop-opacity:1"
         offset="0"
         id="stop1678" />
      <stop
         style="stop-color:#00c000;stop-opacity:1"
         offset="1"
         id="stop1680" />
    </linearGradient>
    <linearGradient
       inkscape:collect="always"
       id="linearGradient15356">
      <stop
         style="stop-color:#524c4c;stop-opacity:0.501960814"
         offset="0"
         id="stop15358" />
      <stop
         id="stop1058"
         offset="0.0226291716"
         style="stop-color:#504f4d;stop-opacity:1" />
      <stop
         id="stop1056"
         offset="0.0574008226"
         style="stop-color:#585755;stop-opacity:1" />
      <stop
         id="stop1054"
         offset="0.0767184123"
         style="stop-color:#5f5e5c;stop-opacity:1" />
      <stop
         id="stop1052"
         offset="0.0971398577"
         style="stop-color:#6c6b69;stop-opacity:1" />
      <stop
         id="stop5088"
         offset="0.1250000149"
         style="stop-color:#7f7f7f;stop-opacity:1" />
      <stop
         style="stop-color:#9fa1a0;stop-opacity:1"
         offset="0.1633715779"
         id="stop1050" />
      <stop
         style="stop-color:#bcbebd;stop-opacity:1"
         offset="0.1915200651"
         id="stop1048" />
      <stop
         style="stop-color:#d4d4d4;stop-opacity:1"
         offset="0.212309137"
         id="stop960" />
      <stop
         id="stop1046"
         offset="0.2307071537"
         style="stop-color:#eaeaea;stop-opacity:1" />
      <stop
         id="stop1044"
         offset="0.2483689487"
         style="stop-color:#fcfcfc;stop-opacity:1" />
      <stop
         id="stop1042"
         offset="0.2704461813"
         style="stop-color:#dadada;stop-opacity:1" />
      <stop
         id="stop1038"
         offset="0.2875560522"
         style="stop-color:#bbbcbc;stop-opacity:1" />
      <stop
         style="stop-color:#a1a3a2;stop-opacity:1"
         offset="0.3019062579"
         id="stop1040" />
      <stop
         id="stop6835"
         offset="0.3186882734"
         style="stop-color:#8e8f8e;stop-opacity:1" />
      <stop
         style="stop-color:#7c7c7c;stop-opacity:1"
         offset="0.3388856351"
         id="stop1036" />
      <stop
         style="stop-color:#717171;stop-opacity:1"
         offset="0.3604109585"
         id="stop1034" />
      <stop
         id="stop6833"
         offset="0.3750000298"
         style="stop-color:#717171;stop-opacity:1" />
      <stop
         style="stop-color:#787878;stop-opacity:1"
         offset="0.3880074918"
         id="stop1032" />
      <stop
         style="stop-color:#8e8e8e;stop-opacity:1"
         offset="0.4045654237"
         id="stop1030" />
      <stop
         style="stop-color:#a7a8a8;stop-opacity:1"
         offset="0.4222272038"
         id="stop1028" />
      <stop
         style="stop-color:#cacccb;stop-opacity:1"
         offset="0.4487199187"
         id="stop1026" />
      <stop
         style="stop-color:#f4f4f4;stop-opacity:1"
         offset="0.485147357"
         id="stop1024" />
      <stop
         style="stop-color:#fdfdfd;stop-opacity:1"
         offset="0.513733387"
         id="stop6837" />
      <stop
         id="stop1022"
         offset="0.5304057002"
         style="stop-color:#f1f1f1;stop-opacity:1" />
      <stop
         id="stop1020"
         offset="0.5524829626"
         style="stop-color:#c9cbca;stop-opacity:1" />
      <stop
         id="stop1018"
         offset="0.5668331385"
         style="stop-color:#adafae;stop-opacity:1" />
      <stop
         id="stop1016"
         offset="0.5811833739"
         style="stop-color:#8e8e8e;stop-opacity:1" />
      <stop
         id="stop958"
         offset="0.5932167172"
         style="stop-color:#767573;stop-opacity:1" />
      <stop
         style="stop-color:#5f5e5c;stop-opacity:1"
         offset="0.6109876037"
         id="stop1014" />
      <stop
         style="stop-color:#5c5b59;stop-opacity:1"
         offset="0.6250000596"
         id="stop6839" />
      <stop
         id="stop1012"
         offset="0.640239954"
         style="stop-color:#696866;stop-opacity:1" />
      <stop
         id="stop1010"
         offset="0.6518304944"
         style="stop-color:#797977;stop-opacity:1" />
      <stop
         id="stop1008"
         offset="0.6672846079"
         style="stop-color:#8f8f8f;stop-opacity:1" />
      <stop
         id="stop1006"
         offset="0.6810828447"
         style="stop-color:#a5a7a6;stop-opacity:1" />
      <stop
         id="stop956"
         offset="0.7056156993"
         style="stop-color:#c9c9c9;stop-opacity:1" />
      <stop
         style="stop-color:#eaeceb;stop-opacity:1"
         offset="0.7296527624"
         id="stop1004" />
      <stop
         style="stop-color:#f3f3f3;stop-opacity:1"
         offset="0.7467626333"
         id="stop1002" />
      <stop
         style="stop-color:#f6f6f6;stop-opacity:1"
         offset="0.7589051127"
         id="stop1000" />
      <stop
         style="stop-color:#fbfbfb;stop-opacity:1"
         offset="0.7715995312"
         id="stop998" />
      <stop
         id="stop6841"
         offset="0.7843441367"
         style="stop-color:#ffffff;stop-opacity:1" />
      <stop
         style="stop-color:#fafafa;stop-opacity:1"
         offset="0.8025076985"
         id="stop996" />
      <stop
         style="stop-color:#f4f4f4;stop-opacity:1"
         offset="0.8190656304"
         id="stop994" />
      <stop
         style="stop-color:#eaeceb;stop-opacity:1"
         offset="0.8328638673"
         id="stop992" />
      <stop
         style="stop-color:#d8dad9;stop-opacity:1"
         offset="0.8539983034"
         id="stop984" />
      <stop
         id="stop990"
         offset="0.8714990616"
         style="stop-color:#c4c4c6;stop-opacity:1" />
      <stop
         style="stop-color:#adafae;stop-opacity:1"
         offset="0.8929472566"
         id="stop982" />
      <stop
         id="stop988"
         offset="0.9162054658"
         style="stop-color:#929292;stop-opacity:1" />
      <stop
         id="stop5090"
         offset="0.937443912"
         style="stop-color:#777777;stop-opacity:1" />
      <stop
         style="stop-color:#585755;stop-opacity:1"
         offset="0.9719504714"
         id="stop986" />
      <stop
         style="stop-color:#524c4c;stop-opacity:0.501960814"
         offset="1"
         id="stop15360" />
    </linearGradient>
    <clipPath
       clipPathUnits="userSpaceOnUse"
       id="clipPath18418">
      <path
         style="color:#000000;clip-rule:nonzero;display:inline;overflow:visible;visibility:visible;opacity:1;isolation:auto;mix-blend-mode:normal;color-interpolation:sRGB;color-interpolation-filters:linearRGB;solid-color:#000000;solid-opacity:1;fill:#ffffff;fill-opacity:1;fill-rule:evenodd;stroke:none;stroke-width:5;stroke-linecap:round;stroke-linejoin:round;stroke-miterlimit:4;stroke-dasharray:none;stroke-dashoffset:0;stroke-opacity:1;marker:none;color-rendering:auto;image-rendering:auto;shape-rendering:auto;text-rendering:auto;enable-background:accumulate"
         d="m 3426.51313516665,-1705.856486205056 0,-299.999999999999 c 1.745046441747,0 3.490159344281,0.01523164595 5.234939927623,0.04569145308 1.744780742105,0.0304598099 3.489362066197,0.07615010805 5.233345314209,0.137060441188 1.743983565198,0.06091034422 3.487501894335,0.137045376845 5.230156573116,0.228387679357 1.742655153712,0.09134232741 3.484579395176,0.197898903024 5.225374675665,0.319645348424 1.740795912155,0.121746489577 3.480595458803,0.258692149994 5.219001078468,0.410805650424 1.73840640672,0.1521135693 3.475551298619,0.319406599506 5.211037722987,0.501840817042 1.735487365136,0.18243431643 3.469448450982,0.380023757307 5.20148703493,0.592723118084 1.732039676437,0.212699494939 3.462288774747,0.440525158781 5.19035192354,0.683424869927 1.728064390677,0.242899885708 3.454074450682,0.500892374554 5.177635780673,0.773918443931 1.723562718632,0.273026289347 3.444807980822,0.561107016125 5.163342479787,0.864176274878 1.718536031431,0.303069529007 3.434492187692,0.621150741468 5.147476374766,0.954170869364 1.712985860122,0.333020453152 3.423130213463,0.681005260599 5.130042298575,1.043874814157 1.706913895218,0.362869938364 3.410725518981,0.740652341172 5.111045561806,1.13326078457 1.700321986173,0.392608892123 3.39728188272,0.800073814026 5.090491951045,1.222301552773 1.69321214084,0.422228255561 3.382803399637,0.859251578699 5.068387727124,1.310969996078 1.685586524829,0.451719006241 3.367294479901,0.918167608981 5.044739623203,1.399239105225 1.677447460871,0.481072160895 3.350759847594,0.976803958367 5.019554842721,1.487081992584 1.668797428111,0.510278778167 3.333204539219,1.035142765551 4.992841057211,1.574471900366 1.659639061333,0.539329961321 3.314633902213,1.093166259845 4.964606403948,1.661382208752 1.649975150176,0.568216860971 3.295053593284,1.15085676662 4.934859483481,1.747786444022 1.639808638282,0.596930677772 3.274469576712,1.208196712659 4.903609357013,1.833658286611 1.629142622387,0.625462665093 3.252888122513,1.265168631534 4.870865543623,1.918971579125 1.617980351403,0.653804131682 3.230315804553,1.321755168912 4.836638017413,2.003700334304 1.606325225398,0.681946444327 3.206759498516,1.377939087858 4.800937204408,2.087818742953 1.594180794577,0.709881030471 3.182226379834,1.433703274062 4.763773979417,2.171301181785 1.581550758206,0.737599380835 3.156723921495,1.489030741081 4.725159662731,2.254122221245 1.568438963481,0.765093051996 3.130259891759,1.543904635485 4.685106016633,2.33625663324 1.554849404342,0.79235366898 3.102842351799,1.598308242013 4.643625241859,2.417679398832 1.540786220276,0.819372927791 3.074479653244,1.652224988658 4.600729973852,2.49836571586 1.526253695044,0.846142597963 3.045180435637,1.70563845171 4.556433278929,2.578291006487 1.511256255383,0.872654525045 3.014953623798,1.758532360765 4.510748650289,2.657430924699 1.495798469652,0.898900633103 2.983808425109,1.810890603683 4.463690003908,2.735761363705 1.479885046459,0.924872927178 2.951754326719,1.862697231491 4.415271674319,2.8132584633 1.46352083318,0.95056349571 2.918801092621,1.913936463245 4.365508410201,2.889898617117 1.446710814543,0.975964512955 2.884958760731,1.964592690831 4.314415369934,2.965658479814 1.429460111069,1.001068241384 2.850237639775,2.014650483738 4.262008116951,3.040514974212 1.41177397752,1.025867034008 2.814648306191,2.064094593733 4.20830261501,3.114445298296 1.393657801303,1.050353336738 2.778201600878,2.112909959523 4.153315223319,3.187426932172 1.375117100838,1.074519690673 2.740908625915,2.161081711349 4.097062691585,3.259437644927 1.35615752385,1.098358734376 2.702780741164,2.208595175487 4.039562154864,3.330455501399 1.336784845669,1.121863206104 2.663829560812,2.255435878754 3.980831128371,3.400458868861 1.317004967479,1.145025946053 2.624066949854,2.301589552897 3.920887502161,3.469426423615 1.296823914495,1.167839898493 2.583505020439,2.347042138935 3.859749535637,3.537337157466 1.276247834139,1.190298113959 2.542156128211,2.391779791459 3.797435852007,3.604170384157 1.255282994177,1.212393751342 2.500032868546,2.435788882829 3.733965432636,3.669905745631 1.233935780796,1.234120079992 2.457148072689,2.479056007353 3.669357611216,3.734523218265 1.212212696669,1.255470481748 2.413514803874,2.521567985342 3.603632067928,3.798003118949 1.190120358952,1.276438452976 2.369146353331,2.563311867142 3.536808823405,3.860326111093 1.167665497303,1.29701760653 2.324056236218,2.604274937074 3.468908232644,3.921473210504 1.144854951804,1.317201673716 2.27825818756,2.644444717306 3.399950978833,3.981425791191 1.121695670892,1.336984506187 2.231766158008,2.683808971663 3.329958067021,4.04016559101 1.098194709222,1.356360077827 2.184594309602,2.722355709338 3.258950817726,4.097674717254 1.07435922555,1.37532248658 2.136757011478,2.76007318856 3.18695086044,4.153935652085 1.05019648052,1.393865956245 2.08826883548,2.796949920164 3.113980127046,4.208931257871 1.025713834481,1.411984838253 2.039144551708,2.832974671094 3.04006084514,4.26264478243 1.000918745216,1.429673613364 1.989399124038,2.868136467815 2.965215531256,4.31505986409 0.975818765684,1.446926893369 1.939047705544,2.902424599677 2.889466983991,4.366160536717 0.950421541731,1.463739422712 1.888105633907,2.935828622152 2.812838277093,4.415931234545 0.924734809736,1.480106080114 1.836588426712,2.968338360035 2.735352752411,4.464356796947 0.898766394268,1.496021880107 1.784511776741,2.999943910527 2.657034012778,4.511422473015 0.872524205711,1.511481974577 1.731891547206,3.030635646277 2.577905914849,4.557113926099 0.846016237826,1.526481654226 1.678743766862,3.060404218281 2.497992561799,4.601417238134 0.819250565346,1.541016350008 1.625084625206,3.089240558759 2.417318296024,4.644318913902 0.792235341496,1.555081634526 1.570930467459,3.117135883898 2.335907691674,4.685805885141 0.764978795519,1.568673223378 1.516297789648,3.144081696543 2.253785547212,4.725865514514 0.737489230167,1.581786976461 1.461203233568,3.170069788769 2.170976877844,4.764485599469 0.709775019175,1.594418899231 1.405663581674,3.195092244393 2.087506907889,4.801654375957 0.681844604688,1.606565143924 1.349695752033,3.219141441384 2.0034010631,4.837360522009 0.653706494725,1.618222010723 1.293316793126,3.242210054174 1.918684962945,4.871593161183 0.625369260556,1.629385948894 1.236543878641,3.264291055905 1.833384412761,4.904341865888 0.596841534114,1.640053557848 1.179394302312,3.285377720561 1.747525395932,4.935596660554 0.568132005339,1.650221588206 1.121885472553,3.305463625012 1.661134065931,4.965348024663 0.539249419563,1.659886942755 1.064034907241,3.324542650979 1.574236738407,4.993586895662 0.510202574814,1.669046677423 1.00586022833,3.342608986901 1.486859883112,5.020304671722 0.481000319175,1.67769800215 0.947379156507,3.359657129683 1.39903011591,5.045493214342 0.45165154802,1.685838281757 0.888609505769,3.375681886402 1.310774190566,5.069144850856 0.422165201393,1.693465036733 0.829569178034,3.390678375861 1.222118990715,5.091252376739 0.392550261215,1.700575943999 0.770276157642,3.4046420301 1.133091521577,5.111809057833 0.36281574858,1.707168837617 0.710748505911,3.417568595763 1.04371890179,5.130808632364 0.332970720994,1.713241709439 0.651004355623,3.429454135418 0.954028355105,5.148245312884 0.303024269618,1.718792709733 0.591061905503,3.440295028737 0.864047202148,5.164113788009 0.272985516522,1.723820147731 0.530939414668,3.450087973605 0.773802852039,5.178409224048 0.242863611862,1.728322492156 0.470655197079,3.45882998713 0.683322794095,5.191127266477 0.212667731118,1.732298371679 0.410227615934,3.46651840654 0.592634589397,5.202264041249 0.182407072313,1.735746575346 0.349675078125,3.473150890007 0.501765862469,5.211816155997 0.152090853175,1.738666052936 0.289016028579,3.47872541735 0.410744292792,5.21978070106 0.121728308374,1.741055915285 0.228268944658,3.483240290655 0.319597606434,5.226155250354 0.09132868666,1.74291543456 0.167452330533,3.486694134793 0.228353567539,5.230937862133 0.06090124808,1.744244044477 0.106584711576,3.489085897831 0.137039969947,5.234127079565 0.03045526114,1.745041340472 0.04568462864,3.49041485136 0.04568462864,5.235721931186 l -149.977596110753,149.977596110775 z"
         id="path18420"
         inkscape:connector-curvature="0"
         sodipodi:nodetypes="ccsssssssssssssssssssssssssssssssssssssssssssssssssssssssssssssssssssssssssssssssssssssssssccc" />
    </clipPath>
    <clipPath
       clipPathUnits="userSpaceOnUse"
       id="clipPath4814">
      <path
         sodipodi:nodetypes="ccsssssssssssssssssssssssssssssssssssssssssssssssssssssssssssssssssssssssssssssssssssssssssccc"
         inkscape:connector-curvature="0"
         id="path4816"
         d="m 1827.081277417385,-3134.098162112773 300,0 c 0,1.745046441748 -0.01523164595,3.490159344282 -0.04569145308,5.234939927625 -0.0304598099,1.744780742104 -0.07615010805,3.489362066196 -0.13706044119,5.23334531421 -0.06091034422,1.743983565195 -0.137045376845,3.487501894333 -0.228387679354,5.230156573115 -0.09134232741,1.742655153712 -0.197898903024,3.484579395175 -0.319645348424,5.225374675666 -0.121746489577,1.740795912152 -0.258692149994,3.480595458801 -0.410805650424,5.219001078468 -0.152113569301,1.73840640672 -0.319406599509,3.475551298617 -0.501840817045,5.211037722984 -0.182434316428,1.735487365139 -0.380023757305,3.469448450983 -0.592723118083,5.201487034931 -0.212699494939,1.732039676437 -0.440525158781,3.462288774749 -0.683424869927,5.190351923542 -0.242899885705,1.728064390672 -0.500892374554,3.454074450679 -0.773918443928,5.177635780672 -0.27302628935,1.723562718632 -0.561107016124,3.444807980819 -0.864176274878,5.163342479786 -0.303069529008,1.718536031433 -0.621150741469,3.434492187692 -0.954170869365,5.147476374767 -0.333020453152,1.712985860122 -0.681005260598,3.423130213463 -1.043874814157,5.130042298575 -0.362869938363,1.706913895216 -0.740652341171,3.410725518981 -1.13326078457,5.111045561803 -0.392608892123,1.700321986176 -0.800073814025,3.397281882723 -1.222301552773,5.090491951047 -0.422228255561,1.693212140839 -0.859251578699,3.382803399633 -1.310969996077,5.068387727124 -0.451719006241,1.685586524829 -0.918167608982,3.367294479905 -1.399239105226,5.044739623203 -0.481072160896,1.677447460871 -0.976803958367,3.350759847593 -1.487081992584,5.019554842725 -0.510278778168,1.668797428109 -1.035142765551,3.333204539219 -1.574471900366,4.992841057207 -0.539329961322,1.659639061331 -1.093166259846,3.314633902212 -1.661382208752,4.964606403948 -0.568216860971,1.649975150176 -1.150856766622,3.295053593282 -1.747786444023,4.93485948348 -0.596930677772,1.639808638282 -1.208196712659,3.274469576711 -1.83365828661,4.903609357014 -0.625462665093,1.629142622387 -1.265168631533,3.252888122513 -1.918971579125,4.870865543626 -0.653804131682,1.617980351402 -1.321755168913,3.230315804551 -2.003700334304,4.836638017412 -0.681946444327,1.606325225397 -1.377939087859,3.206759498516 -2.087818742953,4.800937204407 -0.709881030472,1.594180794577 -1.433703274065,3.182226379834 -2.171301181786,4.763773979417 -0.737599380835,1.58155075821 -1.489030741081,3.156723921497 -2.254122221245,4.72515966273 -0.765093051994,1.568438963483 -1.543904635485,3.13025989176 -2.336256633238,4.685106016634 -0.79235366898,1.554849404343 -1.598308242013,3.102842351798 -2.417679398831,4.643625241859 -0.81937292779,1.540786220276 -1.652224988657,3.074479653244 -2.49836571586,4.600729973853 -0.846142597963,1.526253695042 -1.70563845171,3.045180435635 -2.578291006486,4.556433278927 -0.872654525045,1.511256255383 -1.758532360765,3.014953623798 -2.657430924699,4.510748650287 -0.898900633103,1.495798469655 -1.810890603683,2.98380842511 -2.735761363705,4.463690003909 -0.924872927179,1.479885046458 -1.862697231491,2.951754326716 -2.813258463301,4.415271674321 -0.95056349571,1.463520833177 -1.913936463244,2.918801092621 -2.889898617116,4.365508410201 -0.975964512955,1.446710814544 -1.964592690831,2.884958760731 -2.965658479814,4.314415369935 -1.001068241384,1.429460111067 -2.014650483738,2.850237639775 -3.040514974213,4.262008116949 -1.025867034007,1.411773977521 -2.064094593733,2.814648306191 -3.114445298295,4.208302615006 -1.050353336739,1.393657801307 -2.112909959524,2.778201600878 -3.187426932172,4.153315223322 -1.074519690672,1.375117100838 -2.16108171135,2.740908625914 -3.259437644927,4.097062691582 -1.098358734374,1.35615752385 -2.208595175487,2.702780741163 -3.330455501397,4.039562154863 -1.121863206105,1.336784845666 -2.255435878756,2.66382956081 -3.400458868863,3.980831128373 -1.145025946053,1.31700496748 -2.301589552897,2.624066949852 -3.469426423615,3.920887502163 -1.167839898493,1.296823914494 -2.347042138935,2.583505020437 -3.537337157466,3.859749535632 -1.190298113958,1.276247834139 -2.391779791457,2.542156128212 -3.604170384157,3.797435852008 -1.212393751342,1.255282994181 -2.435788882829,2.500032868546 -3.66990574563,3.733965432637 -1.234120079991,1.233935780799 -2.479056007352,2.457148072689 -3.734523218266,3.669357611217 -1.255470481748,1.212212696668 -2.52156798534,2.413514803875 -3.798003118949,3.603632067927 -1.276438452976,1.190120358954 -2.56331186714,2.369146353329 -3.860326111093,3.536808823403 -1.29701760653,1.167665497303 -2.604274937074,2.324056236218 -3.921473210502,3.468908232644 -1.317201673718,1.144854951805 -2.644444717308,2.278258187563 -3.981425791193,3.399950978835 -1.336984506187,1.12169567089 -2.683808971663,2.231766158006 -4.04016559101,3.329958067022 -1.356360077827,1.098194709222 -2.722355709338,2.184594309602 -4.097674717254,3.258950817726 -1.375322486579,1.074359225549 -2.76007318856,2.136757011478 -4.153935652083,3.186950860437 -1.393865956246,1.050196480521 -2.796949920164,2.088268835481 -4.208931257871,3.113980127048 -1.411984838253,1.025713834479 -2.832974671094,2.039144551708 -4.262644782429,3.04006084514 -1.429673613366,1.000918745215 -2.868136467819,1.989399124038 -4.315059864091,2.965215531255 -1.446926893368,0.975818765684 -2.902424599677,1.939047705544 -4.366160536716,2.889466983991 -1.463739422712,0.950421541731 -2.935828622151,1.888105633906 -4.415931234546,2.812838277093 -1.480106080114,0.924734809737 -2.968338360034,1.83658842671 -4.464356796946,2.735352752411 -1.496021880108,0.89876639427 -2.999943910526,1.784511776743 -4.511422473016,2.657034012775 -1.511481974578,0.872524205713 -3.030635646277,1.731891547204 -4.557113926099,2.577905914849 -1.526481654227,0.846016237826 -3.060404218281,1.678743766865 -4.601417238134,2.497992561799 -1.541016350009,0.819250565346 -3.089240558759,1.625084625206 -4.644318913903,2.417318296023 -1.555081634526,0.792235341497 -3.117135883899,1.570930467461 -4.68580588514,2.335907691675 -1.568673223379,0.764978795521 -3.144081696544,1.516297789648 -4.725865514514,2.253785547211 -1.581786976461,0.737489230171 -3.17006978877,1.461203233569 -4.76448559947,2.170976877846 -1.594418899231,0.709775019176 -3.195092244394,1.405663581677 -4.801654375958,2.087506907887 -1.606565143923,0.681844604689 -3.219141441383,1.349695752037 -4.837360522008,2.003401063102 -1.618222010724,0.653706494723 -3.242210054174,1.293316793126 -4.871593161185,1.918684962946 -1.629385948892,0.625369260556 -3.264291055904,1.236543878645 -4.904341865888,1.833384412764 -1.640053557847,0.596841534111 -3.285377720561,1.179394302309 -4.935596660554,1.747525395931 -1.650221588206,0.568132005339 -3.305463625011,1.12188547255 -4.965348024663,1.661134065931 -1.659886942757,0.539249419563 -3.324542650981,1.064034907238 -4.993586895661,1.574236738403 -1.669046677424,0.51020257482 -3.342608986902,1.005860228331 -5.020304671723,1.486859883118 -1.677698002149,0.481000319171 -3.359657129683,0.947379156506 -5.045493214342,1.399030115906 -1.685838281757,0.451651548022 -3.375681886402,0.888609505771 -5.069144850856,1.310774190566 -1.693465036733,0.422165201395 -3.390678375861,0.829569178034 -5.091252376739,1.222118990715 -1.700575943999,0.392550261217 -3.404642030098,0.770276157642 -5.111809057833,1.133091521579 -1.707168837616,0.36281574858 -3.417568595763,0.71074850591 -5.130808632363,1.043718901784 -1.713241709439,0.332970720994 -3.429454135418,0.651004355624 -5.148245312884,0.954028355105 -1.718792709733,0.303024269624 -3.440295028737,0.591061905503 -5.16411378801,0.864047202152 -1.72382014773,0.272985516522 -3.450087973604,0.530939414667 -5.178409224048,0.773802852042 -1.728322492155,0.242863611858 -3.458829987129,0.470655197074 -5.191127266476,0.683322794092 -1.73229837168,0.212667731118 -3.466518406541,0.410227615937 -5.20226404125,0.592634589398 -1.735746575346,0.18240707231 -3.473150890007,0.349675078127 -5.211816155996,0.501765862467 -1.738666052937,0.152090853178 -3.47872541735,0.289016028579 -5.21978070106,0.410744292797 -1.741055915285,0.121728308373 -3.483240290655,0.228268944656 -5.226155250354,0.319597606429 -1.74291543456,0.09132868666 -3.486694134794,0.16745233054 -5.230937862133,0.228353567542 -1.744244044477,0.06090124808 -3.489085897833,0.106584711574 -5.234127079566,0.137039969943 -1.745041340472,0.03045526114 -3.490414851359,0.04568462864 -5.235721931186,0.04568462864 l -149.977596110774,-149.977596110753 z"
         style="color:#000000;clip-rule:nonzero;display:inline;overflow:visible;visibility:visible;opacity:1;isolation:auto;mix-blend-mode:normal;color-interpolation:sRGB;color-interpolation-filters:linearRGB;solid-color:#000000;solid-opacity:1;fill:#ffffff;fill-opacity:1;fill-rule:evenodd;stroke:none;stroke-width:5;stroke-linecap:round;stroke-linejoin:round;stroke-miterlimit:4;stroke-dasharray:none;stroke-dashoffset:0;stroke-opacity:1;marker:none;color-rendering:auto;image-rendering:auto;shape-rendering:auto;text-rendering:auto;enable-background:accumulate" />
    </clipPath>
    <clipPath
       clipPathUnits="userSpaceOnUse"
       id="clipPath4821">
      <path
         sodipodi:nodetypes="ccsssssssssssssssssssssssssssssssssssssssssssssssssssssssssssssssssssssssssssssssssssssssssccc"
         inkscape:connector-curvature="0"
         id="path4823"
         d="m 3832.664092000893,-2660.086739317626 0,300 c -1.745046441748,0 -3.490159344282,-0.01523164595 -5.234939927625,-0.04569145308 -1.744780742104,-0.0304598099 -3.489362066196,-0.07615010805 -5.23334531421,-0.13706044119 -1.743983565195,-0.06091034422 -3.487501894333,-0.137045376845 -5.230156573115,-0.228387679354 -1.742655153712,-0.09134232741 -3.484579395175,-0.197898903024 -5.225374675666,-0.319645348425 -1.740795912152,-0.121746489576 -3.480595458801,-0.258692149994 -5.219001078468,-0.410805650424 -1.73840640672,-0.152113569299 -3.475551298617,-0.319406599508 -5.211037722984,-0.501840817044 -1.735487365139,-0.182434316428 -3.469448450983,-0.380023757305 -5.201487034931,-0.592723118084 -1.732039676437,-0.212699494938 -3.462288774748,-0.44052515878 -5.190351923542,-0.683424869926 -1.728064390672,-0.242899885705 -3.454074450679,-0.500892374553 -5.177635780672,-0.773918443929 -1.723562718632,-0.273026289349 -3.444807980819,-0.561107016124 -5.163342479786,-0.864176274878 -1.718536031433,-0.303069529008 -3.434492187692,-0.621150741468 -5.147476374767,-0.954170869365 -1.712985860122,-0.333020453152 -3.423130213463,-0.681005260598 -5.130042298575,-1.043874814157 -1.706913895216,-0.362869938363 -3.410725518981,-0.740652341171 -5.111045561803,-1.13326078457 -1.700321986176,-0.392608892123 -3.397281882723,-0.800073814025 -5.090491951048,-1.222301552773 -1.693212140839,-0.422228255561 -3.382803399632,-0.859251578699 -5.068387727124,-1.310969996077 -1.685586524829,-0.451719006241 -3.367294479904,-0.918167608982 -5.044739623203,-1.399239105225 -1.677447460871,-0.481072160896 -3.350759847592,-0.976803958368 -5.019554842724,-1.487081992585 -1.66879742811,-0.510278778167 -3.333204539219,-1.03514276555 -4.992841057208,-1.574471900366 -1.65963906133,-0.539329961321 -3.314633902211,-1.093166259845 -4.964606403948,-1.661382208752 -1.649975150176,-0.568216860971 -3.295053593281,-1.150856766621 -4.93485948348,-1.747786444022 -1.639808638281,-0.596930677772 -3.27446957671,-1.208196712658 -4.903609357014,-1.83365828661 -1.629142622387,-0.625462665093 -3.252888122512,-1.265168631533 -4.870865543625,-1.918971579125 -1.617980351402,-0.653804131682 -3.230315804551,-1.321755168913 -4.836638017412,-2.003700334304 -1.606325225398,-0.681946444327 -3.206759498516,-1.377939087859 -4.800937204408,-2.087818742953 -1.594180794576,-0.709881030472 -3.182226379834,-1.433703274065 -4.763773979416,-2.171301181786 -1.58155075821,-0.737599380835 -3.156723921497,-1.489030741081 -4.72515966273,-2.254122221246 -1.568438963484,-0.765093051994 -3.13025989176,-1.543904635485 -4.685106016635,-2.336256633238 -1.554849404342,-0.79235366898 -3.102842351797,-1.598308242013 -4.643625241859,-2.417679398831 -1.540786220275,-0.81937292779 -3.074479653243,-1.652224988657 -4.600729973853,-2.49836571586 -1.526253695042,-0.846142597963 -3.045180435634,-1.70563845171 -4.556433278927,-2.578291006486 -1.511256255383,-0.872654525045 -3.014953623798,-1.758532360765 -4.510748650287,-2.657430924698 -1.495798469654,-0.898900633103 -2.98380842511,-1.810890603684 -4.463690003909,-2.735761363705 -1.479885046458,-0.924872927179 -2.951754326716,-1.862697231491 -4.415271674321,-2.813258463301 -1.463520833177,-0.95056349571 -2.918801092621,-1.913936463245 -4.365508410201,-2.889898617116 -1.446710814544,-0.975964512956 -2.884958760731,-1.964592690832 -4.314415369935,-2.965658479814 -1.429460111067,-1.001068241384 -2.850237639775,-2.014650483739 -4.262008116949,-3.040514974213 -1.411773977521,-1.025867034007 -2.814648306191,-2.064094593733 -4.208302615006,-3.114445298295 -1.393657801307,-1.050353336739 -2.778201600878,-2.112909959524 -4.153315223321,-3.187426932172 -1.375117100838,-1.074519690672 -2.740908625914,-2.161081711351 -4.097062691583,-3.259437644927 -1.35615752385,-1.098358734374 -2.702780741163,-2.208595175487 -4.039562154862,-3.330455501397 -1.336784845666,-1.121863206105 -2.66382956081,-2.255435878756 -3.980831128373,-3.400458868863 -1.31700496748,-1.145025946053 -2.624066949852,-2.301589552897 -3.920887502163,-3.469426423615 -1.296823914494,-1.167839898493 -2.583505020437,-2.347042138935 -3.859749535633,-3.537337157466 -1.276247834139,-1.190298113958 -2.542156128212,-2.391779791457 -3.797435852008,-3.604170384157 -1.255282994181,-1.212393751342 -2.500032868546,-2.435788882829 -3.733965432637,-3.66990574563 -1.233935780799,-1.234120079991 -2.457148072689,-2.479056007353 -3.669357611217,-3.734523218266 -1.212212696668,-1.255470481748 -2.413514803875,-2.521567985343 -3.603632067927,-3.798003118949 -1.190120358954,-1.276438452976 -2.369146353329,-2.563311867142 -3.536808823403,-3.860326111093 -1.167665497303,-1.29701760653 -2.324056236218,-2.604274937074 -3.468908232644,-3.921473210505 -1.144854951805,-1.317201673715 -2.278258187563,-2.644444717305 -3.399950978835,-3.98142579119 -1.12169567089,-1.336984506187 -2.231766158006,-2.683808971663 -3.329958067022,-4.04016559101 -1.098194709222,-1.356360077827 -2.184594309602,-2.722355709338 -3.258950817726,-4.097674717254 -1.074359225549,-1.37532248658 -2.136757011478,-2.76007318856 -3.186950860437,-4.153935652083 -1.050196480521,-1.393865956246 -2.088268835481,-2.796949920164 -3.113980127048,-4.208931257874 -1.025713834479,-1.411984838252 -2.039144551708,-2.832974671093 -3.04006084514,-4.262644782426 -1.000918745214,-1.429673613367 -1.989399124038,-2.86813646782 -2.965215531254,-4.315059864091 -0.975818765685,-1.446926893368 -1.939047705545,-2.902424599677 -2.889466983992,-4.366160536716 -0.95042154173,-1.463739422712 -1.888105633905,-2.935828622153 -2.812838277093,-4.415931234546 -0.924734809737,-1.480106080115 -1.83658842671,-2.968338360034 -2.735352752411,-4.464356796946 -0.89876639427,-1.496021880108 -1.784511776744,-2.999943910528 -2.657034012775,-4.511422473016 -0.872524205712,-1.511481974579 -1.731891547204,-3.030635646277 -2.577905914849,-4.5571139261 -0.846016237826,-1.526481654226 -1.678743766866,-3.06040421828 -2.497992561799,-4.601417238133 -0.819250565346,-1.54101635001 -1.625084625206,-3.08924055876 -2.417318296023,-4.644318913904 -0.792235341497,-1.555081634527 -1.570930467461,-3.1171358839 -2.335907691675,-4.685805885142 -0.764978795521,-1.568673223378 -1.516297789648,-3.144081696542 -2.253785547211,-4.725865514513 -0.737489230171,-1.58178697646 -1.461203233569,-3.170069788769 -2.170976877846,-4.764485599469 -0.709775019175,-1.594418899232 -1.405663581677,-3.195092244394 -2.087506907887,-4.801654375959 -0.681844604689,-1.606565143923 -1.349695752038,-3.219141441382 -2.003401063102,-4.837360522008 -0.653706494723,-1.618222010724 -1.293316793126,-3.242210054174 -1.918684962947,-4.871593161183 -0.625369260556,-1.629385948894 -1.236543878644,-3.264291055906 -1.833384412763,-4.904341865889 -0.596841534112,-1.640053557848 -1.179394302309,-3.28537772056 -1.747525395931,-4.935596660554 -0.56813200534,-1.650221588205 -1.121885472551,-3.305463625012 -1.661134065932,-4.965348024662 -0.539249419563,-1.659886942757 -1.064034907238,-3.324542650981 -1.574236738402,-4.993586895663 -0.51020257482,-1.669046677423 -1.005860228331,-3.342608986901 -1.486859883119,-5.020304671722 -0.481000319171,-1.67769800215 -0.947379156506,-3.359657129683 -1.399030115906,-5.045493214342 -0.451651548022,-1.685838281757 -0.888609505771,-3.375681886402 -1.310774190566,-5.069144850856 -0.422165201395,-1.693465036733 -0.829569178034,-3.390678375861 -1.222118990715,-5.091252376739 -0.392550261217,-1.700575943998 -0.770276157642,-3.404642030097 -1.133091521579,-5.111809057832 -0.36281574858,-1.707168837617 -0.71074850591,-3.417568595763 -1.043718901784,-5.130808632363 -0.332970720993,-1.713241709439 -0.651004355624,-3.429454135418 -0.954028355105,-5.148245312884 -0.303024269624,-1.718792709733 -0.591061905503,-3.440295028737 -0.864047202152,-5.16411378801 -0.272985516523,-1.72382014773 -0.530939414667,-3.450087973604 -0.773802852043,-5.178409224048 -0.242863611857,-1.728322492155 -0.470655197073,-3.458829987129 -0.683322794091,-5.191127266477 -0.212667731118,-1.732298371679 -0.410227615937,-3.466518406541 -0.592634589398,-5.20226404125 -0.182407072311,-1.735746575346 -0.349675078126,-3.473150890007 -0.501765862467,-5.211816155996 -0.152090853177,-1.738666052937 -0.289016028579,-3.47872541735 -0.410744292797,-5.21978070106 -0.121728308372,-1.741055915285 -0.228268944656,-3.483240290655 -0.319597606429,-5.226155250354 -0.09132868666,-1.74291543456 -0.167452330541,-3.486694134794 -0.228353567541,-5.230937862133 -0.06090124808,-1.744244044477 -0.106584711575,-3.489085897833 -0.137039969944,-5.234127079566 -0.03045526114,-1.745041340472 -0.04568462864,-3.490414851359 -0.04568462864,-5.235721931186 l 149.977596110751,-149.977596110774 z"
         style="color:#000000;clip-rule:nonzero;display:inline;overflow:visible;visibility:visible;opacity:1;isolation:auto;mix-blend-mode:normal;color-interpolation:sRGB;color-interpolation-filters:linearRGB;solid-color:#000000;solid-opacity:1;fill:#ffffff;fill-opacity:1;fill-rule:evenodd;stroke:none;stroke-width:5;stroke-linecap:round;stroke-linejoin:round;stroke-miterlimit:4;stroke-dasharray:none;stroke-dashoffset:0;stroke-opacity:1;marker:none;color-rendering:auto;image-rendering:auto;shape-rendering:auto;text-rendering:auto;enable-background:accumulate" />
    </clipPath>
    <clipPath
       clipPathUnits="userSpaceOnUse"
       id="clipPath4828">
      <path
         sodipodi:nodetypes="ccsssssssssssssssssssssssssssssssssssssssssssssssssssssssssssssssssssssssssssssssssssssssssccc"
         inkscape:connector-curvature="0"
         id="path4830"
         d="m 6779.474331837224,-2658.099752182878 -300,0 c 0,-1.745046441748 0.01523164595,-3.490159344281 0.04569145308,-5.234939927625 0.0304598099,-1.744780742104 0.07615010805,-3.489362066196 0.137060441189,-5.23334531421 0.06091034422,-1.743983565195 0.137045376845,-3.487501894333 0.228387679354,-5.230156573115 0.09134232741,-1.742655153711 0.197898903025,-3.484579395175 0.319645348423,-5.225374675666 0.121746489577,-1.740795912152 0.258692149994,-3.480595458801 0.410805650425,-5.219001078468 0.152113569299,-1.73840640672 0.319406599509,-3.475551298617 0.501840817044,-5.211037722984 0.182434316428,-1.735487365139 0.380023757305,-3.469448450983 0.592723118083,-5.201487034931 0.212699494938,-1.732039676436 0.44052515878,-3.462288774748 0.683424869927,-5.190351923542 0.242899885705,-1.728064390672 0.500892374553,-3.454074450679 0.773918443928,-5.177635780672 0.27302628935,-1.723562718632 0.561107016124,-3.444807980819 0.864176274879,-5.163342479786 0.303069529008,-1.718536031433 0.621150741468,-3.434492187691 0.954170869365,-5.147476374767 0.333020453152,-1.712985860122 0.681005260598,-3.423130213463 1.043874814157,-5.130042298575 0.362869938362,-1.706913895216 0.740652341171,-3.410725518981 1.133260784569,-5.111045561803 0.392608892124,-1.700321986176 0.800073814026,-3.397281882723 1.222301552774,-5.090491951047 0.422228255561,-1.693212140839 0.859251578698,-3.382803399633 1.310969996077,-5.068387727124 0.45171900624,-1.685586524828 0.918167608982,-3.367294479905 1.399239105225,-5.044739623203 0.481072160896,-1.677447460871 0.976803958368,-3.350759847593 1.487081992584,-5.019554842725 0.510278778167,-1.668797428109 1.035142765551,-3.333204539219 1.574471900366,-4.992841057207 0.539329961321,-1.659639061331 1.093166259846,-3.314633902212 1.661382208752,-4.964606403948 0.568216860971,-1.649975150176 1.150856766622,-3.295053593282 1.747786444022,-4.93485948348 0.596930677772,-1.639808638281 1.20819671266,-3.274469576711 1.83365828661,-4.903609357013 0.625462665093,-1.629142622387 1.265168631533,-3.252888122514 1.918971579125,-4.870865543626 0.653804131682,-1.617980351403 1.321755168913,-3.230315804552 2.003700334304,-4.836638017412 0.681946444327,-1.606325225397 1.377939087859,-3.206759498517 2.087818742953,-4.800937204407 0.709881030473,-1.594180794578 1.433703274065,-3.182226379834 2.171301181787,-4.763773979418 0.737599380834,-1.58155075821 1.48903074108,-3.156723921497 2.254122221245,-4.72515966273 0.765093051994,-1.568438963482 1.543904635485,-3.13025989176 2.336256633238,-4.685106016634 0.792353668979,-1.554849404343 1.598308242012,-3.102842351798 2.41767939883,-4.643625241858 0.81937292779,-1.540786220277 1.652224988657,-3.074479653245 2.49836571586,-4.600729973853 0.846142597964,-1.526253695043 1.70563845171,-3.045180435636 2.578291006487,-4.556433278928 0.872654525045,-1.511256255383 1.758532360764,-3.014953623797 2.657430924698,-4.510748650287 0.898900633103,-1.495798469655 1.810890603682,-2.98380842511 2.735761363705,-4.463690003909 0.924872927178,-1.479885046458 1.86269723149,-2.951754326715 2.813258463299,-4.415271674321 0.950563495711,-1.463520833177 1.913936463247,-2.918801092621 2.889898617116,-4.365508410201 0.975964512957,-1.446710814544 1.964592690833,-2.884958760731 2.965658479814,-4.314415369935 1.001068241384,-1.429460111067 2.01465048374,-2.850237639775 3.040514974214,-4.262008116949 1.025867034006,-1.411773977521 2.064094593732,-2.814648306191 3.114445298295,-4.208302615006 1.050353336739,-1.393657801307 2.112909959524,-2.778201600878 3.187426932172,-4.153315223322 1.074519690673,-1.375117100838 2.161081711351,-2.740908625914 3.259437644928,-4.097062691582 1.098358734373,-1.35615752385 2.208595175486,-2.702780741163 3.330455501397,-4.039562154863 1.121863206105,-1.336784845666 2.255435878757,-2.663829560809 3.400458868863,-3.980831128373 1.145025946053,-1.31700496748 2.301589552896,-2.624066949852 3.469426423615,-3.920887502163 1.167839898493,-1.296823914494 2.347042138935,-2.583505020437 3.537337157466,-3.859749535632 1.190298113958,-1.276247834139 2.391779791457,-2.542156128211 3.604170384157,-3.797435852008 1.212393751342,-1.255282994181 2.435788882829,-2.500032868546 3.669905745631,-3.733965432637 1.234120079991,-1.233935780799 2.479056007352,-2.457148072689 3.734523218266,-3.669357611217 1.255470481748,-1.212212696668 2.521567985342,-2.413514803875 3.79800311895,-3.603632067927 1.276438452975,-1.190120358954 2.563311867141,-2.369146353329 3.860326111092,-3.536808823403 1.297017606531,-1.167665497303 2.604274937074,-2.324056236218 3.921473210505,-3.468908232644 1.317201673717,-1.144854951805 2.644444717305,-2.278258187563 3.98142579119,-3.399950978835 1.336984506188,-1.12169567089 2.683808971663,-2.231766158006 4.04016559101,-3.329958067022 1.356360077828,-1.098194709222 2.722355709337,-2.184594309602 4.097674717254,-3.258950817726 1.37532248658,-1.074359225549 2.76007318856,-2.136757011478 4.153935652083,-3.186950860437 1.393865956245,-1.050196480521 2.796949920164,-2.088268835481 4.208931257873,-3.113980127048 1.411984838252,-1.025713834479 2.832974671094,-2.039144551708 4.262644782428,-3.04006084514 1.429673613367,-1.000918745214 2.86813646782,-1.989399124038 4.31505986409,-2.965215531254 1.446926893369,-0.975818765685 2.902424599677,-1.939047705545 4.366160536717,-2.889466983992 1.463739422712,-0.95042154173 2.935828622152,-1.888105633905 4.415931234544,-2.812838277093 1.480106080116,-0.924734809737 2.968338360035,-1.83658842671 4.464356796947,-2.735352752411 1.496021880108,-0.89876639427 2.999943910529,-1.784511776744 4.511422473015,-2.657034012775 1.51148197458,-0.872524205712 3.030635646277,-1.731891547204 4.5571139261,-2.577905914849 1.526481654227,-0.846016237826 3.060404218281,-1.678743766867 4.601417238134,-2.497992561799 1.54101635001,-0.819250565346 3.089240558759,-1.625084625206 4.644318913905,-2.417318296024 1.555081634526,-0.792235341496 3.1171358839,-1.570930467461 4.68580588514,-2.335907691674 1.568673223379,-0.764978795522 3.144081696542,-1.516297789648 4.725865514513,-2.253785547211 1.581786976461,-0.737489230171 3.17006978877,-1.461203233569 4.764485599469,-2.170976877846 1.594418899232,-0.709775019175 3.195092244394,-1.405663581677 4.801654375959,-2.087506907887 1.606565143923,-0.68184460469 3.219141441382,-1.349695752039 4.837360522009,-2.003401063103 1.618222010725,-0.653706494723 3.242210054173,-1.293316793126 4.871593161182,-1.918684962947 1.629385948895,-0.625369260556 3.264291055905,-1.236543878644 4.90434186589,-1.833384412763 1.640053557847,-0.596841534112 3.28537772056,-1.179394302309 4.935596660553,-1.747525395931 1.650221588206,-0.56813200534 3.305463625012,-1.121885472551 4.965348024663,-1.661134065932 1.659886942756,-0.539249419563 3.32454265098,-1.064034907238 4.993586895662,-1.574236738402 1.669046677423,-0.51020257482 3.342608986901,-1.005860228331 5.020304671722,-1.486859883119 1.67769800215,-0.481000319171 3.359657129683,-0.947379156506 5.045493214344,-1.399030115906 1.685838281755,-0.451651548023 3.375681886399,-0.888609505771 5.069144850856,-1.310774190567 1.693465036731,-0.422165201395 3.390678375859,-0.829569178034 5.091252376737,-1.222118990714 1.700575943998,-0.392550261217 3.404642030098,-0.770276157642 5.111809057833,-1.133091521579 1.707168837617,-0.362815748581 3.417568595763,-0.710748505911 5.130808632363,-1.043718901784 1.713241709439,-0.332970720993 3.429454135417,-0.651004355624 5.148245312884,-0.954028355105 1.718792709732,-0.303024269625 3.440295028737,-0.591061905503 5.164113788009,-0.864047202152 1.72382014773,-0.272985516523 3.450087973604,-0.530939414668 5.17840922405,-0.773802852043 1.728322492155,-0.242863611858 3.458829987128,-0.470655197073 5.191127266476,-0.683322794092 1.73229837168,-0.212667731118 3.466518406542,-0.410227615936 5.202264041251,-0.592634589397 1.735746575348,-0.18240707231 3.473150890009,-0.349675078126 5.211816155997,-0.501765862467 1.738666052936,-0.152090853177 3.478725417349,-0.289016028579 5.219780701059,-0.410744292797 1.741055915285,-0.121728308372 3.483240290656,-0.228268944657 5.226155250355,-0.319597606429 1.74291543456,-0.09132868666 3.486694134794,-0.16745233054 5.230937862133,-0.228353567541 1.744244044477,-0.06090124808 3.489085897833,-0.106584711575 5.234127079566,-0.137039969944 1.745041340473,-0.03045526114 3.490414851359,-0.04568462864 5.235721931187,-0.04568462864 l 149.977596110773,149.977596110753 z"
         style="color:#000000;clip-rule:nonzero;display:inline;overflow:visible;visibility:visible;opacity:1;isolation:auto;mix-blend-mode:normal;color-interpolation:sRGB;color-interpolation-filters:linearRGB;solid-color:#000000;solid-opacity:1;fill:#ffffff;fill-opacity:1;fill-rule:evenodd;stroke:none;stroke-width:5;stroke-linecap:round;stroke-linejoin:round;stroke-miterlimit:4;stroke-dasharray:none;stroke-dashoffset:0;stroke-opacity:1;marker:none;color-rendering:auto;image-rendering:auto;shape-rendering:auto;text-rendering:auto;enable-background:accumulate" />
    </clipPath>
    <clipPath
       clipPathUnits="userSpaceOnUse"
       id="clipPath5020">
      <path
         sodipodi:nodetypes="cccc"
         inkscape:connector-curvature="0"
         id="path5022"
         d="m 3426.51313516665,-1705.856486205056 0,-299.999999999999 214.222201011198,150.000000000003 z"
         style="color:#000000;clip-rule:nonzero;display:inline;overflow:visible;visibility:visible;opacity:1;isolation:auto;mix-blend-mode:normal;color-interpolation:sRGB;color-interpolation-filters:linearRGB;solid-color:#000000;solid-opacity:1;fill:#ffffff;fill-opacity:1;fill-rule:evenodd;stroke:none;stroke-width:5;stroke-linecap:round;stroke-linejoin:round;stroke-miterlimit:4;stroke-dasharray:none;stroke-dashoffset:0;stroke-opacity:1;marker:none;color-rendering:auto;image-rendering:auto;shape-rendering:auto;text-rendering:auto;enable-background:accumulate" />
    </clipPath>
    <linearGradient
       inkscape:collect="always"
       xlink:href="#linearGradient15356"
       id="linearGradient6827"
       x1="0"
       y1="452.3621520996094"
       x2="89.63274383544922"
       y2="452.3621520996094"
       gradientUnits="userSpaceOnUse" />
    <clipPath
       clipPathUnits="userSpaceOnUse"
       id="clipPath6072">
      <path
         sodipodi:nodetypes="sssssssssssssssss"
         inkscape:connector-curvature="0"
         id="path6074"
         d="m 920.1153314116907,634.8203241039287 c 25.3617418620979,0 51.1920750959659,5.1379727337542 74.6232693111928,14.8434911602983 23.4311942152256,9.7055184265455 45.3290933667935,24.3372268549334 63.2625530201836,42.2706865083244 17.933459653391,17.9334596533919 32.565168081781,39.8313588049589 42.270686508326,63.2625530201848 9.705518426543,23.4311942152251 14.843491160297,49.2615274490953 14.843491160297,74.6232693111923 0,25.3617418620969 -5.137972733754,51.1920750959674 -14.843491160297,74.6232693111922 -9.705518426545,23.4311942152259 -24.337226854935,45.3290933667929 -42.270686508326,63.262553020186 -17.93345965339,17.933459653391 -39.831358804958,32.5651680817782 -63.2625530201836,42.2706865083243 -23.4311942152259,9.705518426543 -49.2615274490958,14.843491160298 -74.6232693111928,14.843491160298 -25.3617418620961,0 -51.1920750959652,-5.137972733754 -74.6232693111931,-14.843491160299 -23.431194215224,-9.705518426544 -45.3290933667911,-24.3372268549323 -63.2625530201831,-42.2706865083233 -17.9334596533911,-17.933459653392 -32.5651680817801,-39.8313588049591 -42.2706865083252,-63.2625530201851 -9.7055184265471,-23.4311942152249 -14.843491160299,-49.2615274490952 -14.843491160299,-74.6232693111922 0,-25.3617418620967 5.1379727337519,-51.1920750959671 14.843491160299,-74.6232693111931 9.705518426545,-23.4311942152258 24.3372268549332,-45.3290933667936 42.2706865083252,-63.262553020183 17.933459653392,-17.9334596533917 39.8313588049591,-32.5651680817798 63.2625530201831,-42.2706865083238 23.4311942152279,-9.7055184265441 49.2615274490979,-14.8434911603001 74.6232693111931,-14.8434911603008 z"
         style="color:#000000;clip-rule:nonzero;display:inline;overflow:visible;visibility:visible;opacity:1;isolation:auto;mix-blend-mode:normal;color-interpolation:sRGB;color-interpolation-filters:linearRGB;solid-color:#000000;solid-opacity:1;vector-effect:none;fill:#ffffff;fill-opacity:1;fill-rule:nonzero;stroke:none;stroke-width:1.3818435669;stroke-linecap:round;stroke-linejoin:round;stroke-miterlimit:4;stroke-dasharray:none;stroke-dashoffset:0;stroke-opacity:1;marker:none;paint-order:markers stroke fill;color-rendering:auto;image-rendering:auto;shape-rendering:auto;text-rendering:auto;enable-background:accumulate" />
    </clipPath>
    <radialGradient
       inkscape:collect="always"
       xlink:href="#linearGradient1682"
       id="radialGradient2419"
       cx="193.33282"
       cy="847.62671"
       fx="193.33282"
       fy="847.62671"
       r="25.368637"
       gradientTransform="matrix(0.35841478,-0.15414109,0.15467361,0.36677533,-17.449656,580.06613)"
       gradientUnits="userSpaceOnUse" />
  </defs>
  <metadata
     id="metadata6090">
    <rdf:RDF>
      <cc:Work
         rdf:about="">
        <dc:format>image/svg+xml</dc:format>
        <dc:type
           rdf:resource="http://purl.org/dc/dcmitype/StillImage" />
        <dc:date>2018</dc:date>
        <dc:creator>
          <cc:Agent>
            <dc:title>Lazur URH</dc:title>
          </cc:Agent>
        </dc:creator>
      </cc:Work>
    </rdf:RDF>
  </metadata>
  <g
     transform="translate(0,-452.3621605099652)"
     id="layer1"
     inkscape:groupmode="layer"
     inkscape:label="Layer 1">
    <path
       style="fill:url(#radialGradient2419);fill-opacity:1;stroke:#000000;stroke-width:1;stroke-linecap:round;stroke-linejoin:round;stroke-miterlimit:4;stroke-dasharray:none;stroke-opacity:0.751154"
       id="path2232"
       sodipodi:type="arc"
       sodipodi:cx="185.88383"
       sodipodi:cy="863.96423"
       sodipodi:rx="14.408207"
       sodipodi:ry="14.432407"
       sodipodi:start="2.3552687"
       sodipodi:end="2.3518312"
       sodipodi:open="true"
       sodipodi:arc-type="arc"
       d="m 175.70513,874.17893 a 14.408207,14.432407 0 0 1 -0.0276,-20.40172 14.408207,14.432407 0 0 1 20.36748,-0.0452 14.408207,14.432407 0 0 1 0.0626,20.40164 14.408207,14.432407 0 0 1 -20.36737,0.0802" />
  </g>
</svg>
